<?xml version="1.0" encoding="UTF-8"?>
<svg width="2700" height="750" enable-background="new" version="1.1" viewBox="0 0 714.38 198.44" xmlns="http://www.w3.org/2000/svg" xmlns:xlink="http://www.w3.org/1999/xlink"><defs><filter id="i" color-interpolation-filters="sRGB"><feFlood flood-color="rgb(0,0,0)" flood-opacity=".098039" result="flood"/><feComposite in="flood" in2="SourceGraphic" operator="out" result="composite1"/><feGaussianBlur in="composite1" result="blur" stdDeviation="3"/><feOffset dx="6" dy="6" result="offset"/><feComposite in="offset" in2="SourceGraphic" operator="atop" result="composite2"/></filter><filter id="h" x="-.085615" y="-.063929" width="1.1712" height="1.1279" color-interpolation-filters="sRGB"><feGaussianBlur stdDeviation="16.330308"/></filter><radialGradient id="c" cx="117.55" cy="81.427" r="14.737" gradientTransform="matrix(1.5977 0 0 .28197 -108.41 51.298)" gradientUnits="userSpaceOnUse" xlink:href="#a"/><linearGradient id="a"><stop stop-color="#fff" stop-opacity=".95349" offset="0"/><stop stop-color="#fffefe" stop-opacity=".84186" offset=".51061"/><stop stop-color="#fffdfd" stop-opacity="0" offset="1"/></linearGradient><radialGradient id="b" cx="117.55" cy="81.427" r="14.737" gradientTransform="matrix(1.5977 0 0 .28197 -369.81 36.888)" gradientUnits="userSpaceOnUse" xlink:href="#a"/><linearGradient id="g" x1="100.54" x2="116.42" y1="90.625" y2="254.67" gradientUnits="userSpaceOnUse"><stop stop-color="#ffbd8a" offset="0"/><stop stop-color="#ff6f00" stop-opacity=".9703" offset=".096774"/><stop stop-color="#ff994a" offset=".9472"/><stop stop-color="#b35000" offset="1"/></linearGradient><linearGradient id="f" x1="97.854" x2="99.366" y1="122.63" y2="138.5" gradientTransform="translate(25.832 38.845)" gradientUnits="userSpaceOnUse"><stop stop-opacity=".023256" offset="0"/><stop stop-opacity=".14419" offset=".5"/><stop stop-opacity="0" offset="1"/></linearGradient></defs><g transform="translate(-58.905 -80.773)"><g transform="translate(25.378 36.932)" enable-background="new"><path transform="matrix(.26458 0 0 .26458 4.1577 7.5595)" d="m372.89 226.94c-43.978 0.22865-84.451 7.7441-92.889 33.057-20 60 0 240 0 240s0 340 40 340h160c20 0-1e-5 -280-40-360 0-80 20-120 40-120h40c20 0 40 40 40 120-40 80-60 360-40 360h160c40 0 40-340 40-340s20-180 0-240c-20-60-220-20-220-20s-66.846-13.37-127.11-13.057z" fill-opacity=".47907" filter="url(#h)" stroke="#000" stroke-width="1px"/></g><rect x="156.46" y="102.28" width="3.3409" height="31.738" fill="#f86e01"/><g transform="translate(25.832 6.428)"><path id="e" d="m132.29 95.917s-52.917-10.583-58.208 5.2917c-5.2917 15.875 0 63.5 0 63.5s0 89.958 10.583 89.958h42.333c5.2917 0 0-74.083-10.583-95.25 0-21.167 5.2917-31.75 10.583-31.75h5.2917" fill="url(#g)" filter="url(#i)" stroke="#000" stroke-width=".26458px"/><use transform="matrix(-1 0 0 1 264.58 5e-6)" width="100%" height="100%" xlink:href="#e"/></g><path id="d" d="m158.12 102.34s-52.917-10.583-58.208 5.2917c-5.2917 15.875 0 63.5 0 63.5s0 89.958 10.583 89.958h42.333c5.2917 0 0-74.083-10.583-95.25 0-21.167 5.2917-31.75 10.583-31.75h5.2917" fill="url(#f)"/><use transform="matrix(-1 0 0 1 316.25 5e-6)" width="100%" height="100%" xlink:href="#d"/><g transform="translate(25.832 38.845)" enable-background="new"><ellipse transform="matrix(.99857 -.053421 .24681 .96906 0 0)" cx="79.403" cy="74.258" rx="23.545" ry="4.1553" fill="url(#c)" opacity=".424"/><ellipse transform="matrix(-.99857 -.053421 -.24681 .96906 0 0)" cx="-182" cy="59.848" rx="23.545" ry="4.1553" fill="url(#b)" opacity=".424"/></g><text x="256.22034" y="230.27335" fill="#000000" font-family="Lato" font-size="135.26px" font-weight="900" letter-spacing="0px" stroke-width=".70446" word-spacing="0px" style="line-height:1.25" xml:space="preserve"><tspan x="256.22034" y="230.27335" font-family="Lato" font-size="135.26px" font-weight="900" stroke-width=".70446">Lifevest</tspan></text></g></svg>
